<?xml version="1.0" encoding="UTF-8"?>
<svg width="380" height="130" version="1.1" viewBox="0 0 380 130" xmlns="http://www.w3.org/2000/svg" xmlns:cc="http://creativecommons.org/ns#" xmlns:dc="http://purl.org/dc/elements/1.1/" xmlns:rdf="http://www.w3.org/1999/02/22-rdf-syntax-ns#">
 <metadata>
  <rdf:RDF>
   <cc:Work rdf:about="">
    <dc:format>image/svg+xml</dc:format>
    <dc:type rdf:resource="http://purl.org/dc/dcmitype/StillImage"/>
    <dc:title/>
   </cc:Work>
  </rdf:RDF>
 </metadata>
 <g fill="#fff">
  <g transform="translate(0 9.496)" stroke-width=".8">
   <path d="m59.526 76.961c-39.684-51.307-19.842-25.654 0 0z"/>
   <path d="m25.198 82.327c-5.2628-1.5694-9.3318-3.5072-14.201-6.7631-0.90893-0.60772-0.31457-1.8547 3.0423-6.3829l4.172-5.6277 3.7278 1.9821c11.447 6.0866 25.788 5.6016 25.788-0.87214 0-2.8982-2.3845-4.157-11.2-5.9127-15.393-3.0657-20.472-5.6478-23.858-12.13-10.978-21.014 22.832-35.765 46.331-20.214l3.0914 2.0458-2.4143 3.3056c-1.3278 1.8181-3.233 4.3079-4.2338 5.5329l-1.8195 2.2273-5.1482-2.4024c-9.8258-4.5852-20.088-3.9382-20.595 1.2985-0.33631 3.4729 1.6852 4.644 10.697 6.197 17.895 3.0839 23.418 6.52 25.149 15.646 3.4492 18.188-15.379 28.973-38.527 22.07zm70.224 1.2913c-0.84502-1.3673-25.296-61.248-25.296-61.95 0-0.36244 3.8345-0.55681 8.5211-0.43192l8.5211 0.22706 10.491 27.937 15.336-31.393 7.497 15.556c4.1233 8.5558 7.7483 15.273 8.0555 14.928 0.3072-0.34552 2.8579-6.6559 5.6682-14.023l5.1097-13.395 8.6667-0.0051c4.7667-0.0028 8.5467 0.30637 8.4 0.68705-3.4145 8.8626-25.934 62.506-26.238 62.502-0.23563-0.0032-4.1449-7.2034-8.6873-16-9.816-19.009-7.7124-18.416-14.868-4.1939-8.2166 16.33-10.597 20.494-11.177 19.555zm91.063-0.91073c-15.751-5.608-22.605-15.925-21.788-32.792 1.9444-40.107 63.533-39.968 65.276 0.14812l0.33883 7.8h-49.894l0.55527 1.8c2.2181 7.1906 6.9099 9.8 17.621 9.8 6.7931 0 7.4889-0.15693 10.641-2.4 1.8551-1.32 3.8043-2.6995 4.3316-3.0655 0.59629-0.41391 3.3244 0.68429 7.2159 2.9048l6.2572 3.5703-4.1071 4.1071c-8.8146 8.8146-24.62 12.339-36.448 8.1277zm26.21-38.186c-2.168-11.341-22.633-13.785-29.545-3.5282-3.8099 5.6536-3.7704 5.6695 14.065 5.6695h15.889zm52.915 38.91c-26.836-5.3113-32.25-45.047-8.196-60.148 8.964-5.6272 23.84-4.7687 32.112 1.8532l3 2.4016v-6.4754h16v61.6h-16v-5.5648l-3.8 2.4104c-6.8528 4.3468-14.455 5.6369-23.116 3.9228zm18.726-15.47c13.023-6.7346 11.092-29.395-2.8354-33.263-15.448-4.2904-27.388 8.7028-22.143 24.097 3.1699 9.3031 15.771 13.927 24.978 9.166zm55.136 15.143c-3.3057-1.179-5.7602-3.0933-7.2211-5.632-0.60491-1.0512-1.0646-8.8199-1.3259-22.409l-0.4-21.3-7.6 0.01198v-14.312h8v-16.8h16v16.8h12.8v14.4h-12.8v15.081c0 19.804 0.77918 21.719 8.8376 21.719h3.1624v13.6l-8.2-0.03512c-4.7971-0.02056-9.4669-0.48696-11.253-1.1239z"/>
  </g>
  <g shape-rendering="auto">
   <path d="m305.88 105.86c-0.45775 0-0.89456 0.0583-1.3125 0.17773-0.408 0.11942-0.77141 0.29457-1.0898 0.52344-0.30848 0.22888-0.55702 0.51695-0.74609 0.86524-0.17912 0.34828-0.26953 0.74751-0.26953 1.1953 0 0.58711 0.14873 1.0597 0.44726 1.418 0.29854 0.35823 0.6733 0.6557 1.1211 0.89453 0.45775 0.23882 0.94915 0.44411 1.4766 0.61328s1.0151 0.36311 1.4629 0.58203c0.45775 0.20897 0.83623 0.46691 1.1348 0.77539 0.29853 0.30848 0.44726 0.72083 0.44726 1.2383 0 0.64682-0.23914 1.1194-0.7168 1.418-0.4677 0.29853-1.0947 0.44922-1.8809 0.44922-0.62691 0-1.1277-0.081-1.5058-0.24024-0.37814-0.16916-0.66817-0.36682-0.86719-0.5957-0.19902-0.22887-0.33269-0.4643-0.40235-0.70312-0.0697-0.24878-0.10919-0.45779-0.11914-0.62696h-1.0156c0.0199 0.4279 0.1291 0.81773 0.32812 1.166 0.20898 0.34829 0.48765 0.64575 0.83594 0.89453 0.35824 0.23883 0.77626 0.42905 1.2539 0.56836 0.47765 0.12936 1.0012 0.19336 1.5684 0.19336 0.57716 0 1.093-0.0697 1.5508-0.20899 0.4677-0.13931 0.86693-0.33892 1.1953-0.59765 0.32839-0.25873 0.5826-0.57126 0.76172-0.93945s0.26758-0.77682 0.26758-1.2246c0-0.61697-0.15441-1.1197-0.46289-1.5078-0.30849-0.39804-0.69637-0.72564-1.1641-0.98437-0.45774-0.26868-0.9605-0.49276-1.5078-0.67188-0.53736-0.17912-1.0401-0.36933-1.5078-0.56836-0.45775-0.19902-0.83996-0.42681-1.1484-0.68554s-0.46289-0.6014-0.46289-1.0293c0-0.23882 0.0489-0.4629 0.14844-0.67187 0.10946-0.20898 0.26387-0.38785 0.46289-0.53711 0.20897-0.15922 0.46319-0.28544 0.76172-0.375 0.29853-0.0995 0.6412-0.14844 1.0293-0.14844 0.64682 0 1.1948 0.13934 1.6426 0.41797 0.45775 0.26868 0.72704 0.69609 0.80664 1.2832h1.0137c-0.0597-0.36819-0.19338-0.69579-0.40235-0.98437-0.20897-0.29854-0.47258-0.54708-0.79101-0.7461-0.31844-0.20897-0.68185-0.36338-1.0898-0.46289-0.39804-0.10946-0.81606-0.16406-1.2539-0.16406zm-196.46 0.17773v10.629h0.68555v-7.9863h0.0605l8.2852 8.166h0.0742v-10.629h-0.6875v7.9863h-0.0586l-8.2852-8.166zm27.113 0c-0.84584 0-1.6273 0.12055-2.3438 0.35938-0.70653 0.23882-1.3185 0.5815-1.8359 1.0293-0.51745 0.44779-0.9204 1.0014-1.209 1.6582-0.28858 0.64682-0.4336 1.383-0.4336 2.209 0 0.70653 0.11116 1.3919 0.33008 2.0586 0.22888 0.65677 0.57155 1.2499 1.0293 1.7773 0.4677 0.51746 1.0589 0.93547 1.7754 1.2539 0.71648 0.30848 1.5732 0.46289 2.5684 0.46289 0.74633 0 1.4072-0.081 1.9844-0.24024 0.57717-0.16917 1.0555-0.35176 1.4336-0.55078v0.61133h1.2832v-4.6582h-2.9551v0.61328h1.6719v2.7012c-0.4478 0.28858-0.90535 0.50326-1.373 0.64258-0.4677 0.13931-1.0006 0.20898-1.5976 0.20898-0.78614 0-1.4734-0.12055-2.0606-0.35937-0.58711-0.23883-1.0748-0.56643-1.4629-0.98438-0.38809-0.42789-0.67989-0.93065-0.87891-1.5078-0.18907-0.58711-0.28516-1.2292-0.28515-1.9258 0-0.68663 0.0904-1.3174 0.26953-1.8945 0.18907-0.57717 0.46774-1.0762 0.83593-1.4941 0.36819-0.41795 0.81635-0.73988 1.3438-0.96875 0.53736-0.22888 1.1587-0.34375 1.8652-0.34375 0.4677 0 0.90646 0.0489 1.3144 0.14843 0.40799 0.0995 0.76946 0.22946 1.0879 0.38868 0.31844 0.15921 0.57832 0.34376 0.77735 0.55273 0.20897 0.19902 0.34263 0.40236 0.40234 0.61133h1.0742c-0.0896-0.21893-0.24202-0.46179-0.46094-0.73047-0.20897-0.27863-0.499-0.53852-0.86719-0.77734-0.36819-0.23883-0.82574-0.43844-1.373-0.59766-0.53736-0.16917-1.1738-0.25391-1.9102-0.25391zm27.145 0v10.449h0.6582v-8.5234h0.0586l4.6133 8.7031h0.26758l4.7168-8.6426h0.0606v8.4629h1.3574v-10.449h-1.0293l-4.8359 8.9727h-0.0606l-4.791-8.9727zm27.891 0-4.418 10.449h0.68554l1.3145-3.0742h5.1484l1.4336 3.0742h1.4473l-4.8652-10.449zm17.5 0v10.449h3.6133c0.74633 0 1.4467-0.12994 2.1035-0.38867s1.2292-0.62019 1.7168-1.0879c0.49755-0.4677 0.88543-1.0213 1.1641-1.6582 0.28858-0.64682 0.4336-1.3529 0.4336-2.1191 0-0.73638-0.13934-1.4237-0.41797-2.0606-0.26868-0.63687-0.65284-1.1829-1.1504-1.6406-0.48761-0.4677-1.0751-0.83111-1.7617-1.0898-0.68663-0.26868-1.4416-0.4043-2.2676-0.4043zm20.77 0v10.449h6.7461v-0.82031h-5.3867v-4.373h4.627v-0.6875h-4.627v-3.7461h5.3867v-0.82227zm34.533 0v10.449h6.748v-0.82031h-5.3887v-4.373h4.627v-0.6875h-4.627v-3.7461h5.3887v-0.82227zm21.562 0-4.4199 10.449h0.6875l1.3125-3.0742h5.1504l1.4336 3.0742h1.4473l-4.8652-10.449zm34.836 0 3.6133 6.4941v3.9551h1.3574v-4.0898l3.6719-6.3594h-0.80664l-3.1934 5.5098h-0.0606l-3.0449-5.5098zm-283.56 0.17969v10.449h6.748v-0.82031h-5.3887v-4.375h4.627v-0.68555h-4.627v-3.7461h5.3887v-0.82227zm21.562 0-4.4199 10.449h0.6875l1.3125-3.0742h5.1504l1.4336 3.0742h1.4473l-4.8652-10.449zm14.066 0v0.82227h4v9.627h1.3594v-9.627h4v-0.82227zm21.547 0v10.449h1.3574v-10.449zm116.04 0.47852h1.6406c0.73638 0 1.3879 0.12427 1.9551 0.37304 0.56722 0.24878 1.0398 0.58773 1.418 1.0156 0.38809 0.41794 0.68184 0.90368 0.88086 1.4609 0.19902 0.5473 0.29883 1.1197 0.29883 1.7168 0 0.53736-0.0847 1.0796-0.25391 1.627-0.16916 0.53735-0.43649 1.025-0.80468 1.4629-0.36819 0.43784-0.84081 0.79754-1.418 1.0762-0.56721 0.26868-1.2602 0.40234-2.0762 0.40234h-1.6406zm-18.846 1.0137h0.0605l2.3438 5.0312h-4.5527zm94.365 0h0.0605l2.3438 5.0312h-4.5527zm-227.16 0.17969h0.06055l2.3438 5.0312h-4.5527z" color="#000000" color-rendering="auto" dominant-baseline="auto" image-rendering="auto" solid-color="#000000" stop-color="#000000" style="font-feature-settings:normal;font-variant-alternates:normal;font-variant-caps:normal;font-variant-east-asian:normal;font-variant-ligatures:normal;font-variant-numeric:normal;font-variant-position:normal;font-variation-settings:normal;inline-size:0;isolation:auto;mix-blend-mode:normal;shape-margin:0;shape-padding:0;text-decoration-color:#000000;text-decoration-line:none;text-decoration-style:solid;text-indent:0;text-orientation:mixed;text-transform:none;white-space:normal"/>
   <path d="m305.88 105.26c-0.50872 0-1.0021 0.0656-1.4766 0.20117h-4e-3c-0.46761 0.13687-0.89518 0.34282-1.2715 0.61328l-8e-3 4e-3c-0.3781 0.28054-0.68794 0.64041-0.91602 1.0606l-4e-3 6e-3 -2e-3 8e-3c-0.22686 0.44109-0.33594 0.94019-0.33594 1.4688 0 0.68844 0.184 1.3204 0.58594 1.8027 0.35205 0.42245 0.79114 0.76829 1.2988 1.0391l4e-3 2e-3h2e-3c0.48886 0.25505 1.0117 0.47511 1.5703 0.65429 0.50284 0.1613 0.96382 0.344 1.3828 0.54883l8e-3 4e-3 6e-3 2e-3c0.40173 0.1834 0.71458 0.40196 0.95313 0.64844 0.18196 0.18803 0.27929 0.41783 0.27929 0.82031 0 0.49894-0.12291 0.71281-0.43555 0.90821l-4e-3 4e-3c-0.33989 0.21695-0.84913 0.35547-1.5586 0.35547-0.57349 0-0.99879-0.08-1.2695-0.19336-0.31686-0.14323-0.53002-0.29908-0.65039-0.4375-0.15095-0.17359-0.23529-0.32939-0.27734-0.4707v-4e-3c-2e-4 -6.9e-4 -2e-3 -1e-3 -2e-3 -2e-3 -0.0605-0.21774-0.0896-0.39033-0.0957-0.49414l-0.0332-0.56446h-2.2109l0.0293 0.62696c0.0239 0.51275 0.15845 1.0019 0.40625 1.4355l8e-3 0.012c0.25251 0.42084 0.59081 0.78194 1 1.0742l8e-3 6e-3 0.01 6e-3c0.41514 0.27676 0.88971 0.49046 1.418 0.64453l0.012 4e-3c0.53622 0.14522 1.1123 0.21289 1.7246 0.21289 0.62475 0 1.1986-0.0751 1.7226-0.23438 0.52846-0.1574 0.9983-0.38898 1.3945-0.70117 0.39466-0.31093 0.71131-0.69954 0.92969-1.1484 0.22152-0.45535 0.32813-0.95951 0.32813-1.4863 0-0.71641-0.1897-1.3698-0.59375-1.8789-0.35822-0.4606-0.80967-0.84175-1.3379-1.1348-0.49442-0.2893-1.033-0.52866-1.6133-0.71875l-2e-3 -2e-3c-0.52057-0.17359-1.0069-0.35741-1.457-0.54883l-4e-3 -2e-3c-0.41403-0.18044-0.74462-0.37925-0.99804-0.5918-0.18416-0.15446-0.24805-0.28675-0.24805-0.57031 0-0.15161 0.0292-0.27693 0.0859-0.40039 0.0667-0.12447 0.15397-0.22974 0.28515-0.32813l4e-3 -4e-3c0.14397-0.10969 0.3306-0.20543 0.57031-0.27734l0.01-2e-3 8e-3 -4e-3c0.22383-0.0746 0.50219-0.11719 0.83984-0.11719 0.56066 0 0.98863 0.11809 1.3262 0.32812l0.012 8e-3c0.30677 0.18006 0.45697 0.3987 0.51757 0.8457l0.0703 0.51953h2.2422l-0.11328-0.69531c-0.0731-0.45088-0.24312-0.87229-0.50586-1.2363-0.25313-0.36031-0.57714-0.66486-0.95507-0.90234-0.37722-0.24666-0.80297-0.42556-1.2656-0.53907-0.44954-0.12266-0.91803-0.18359-1.4023-0.18359zm-197.06 0.17773v11.828h1.8848v-7.2129l7.5 7.3926h0.91993v-11.828h-1.8867v7.2109l-7.498-7.3906zm27.713 0c-0.90285 0-1.75 0.12956-2.5332 0.39063h-2e-3c-0.77191 0.26092-1.4572 0.64268-2.0371 1.1445-0.58594 0.50707-1.0439 1.1377-1.3652 1.8691-0.32662 0.7328-0.48437 1.5557-0.48437 2.4512 0 0.76947 0.12121 1.5208 0.35937 2.2461l2e-3 4e-3 2e-3 6e-3c0.25317 0.7265 0.63601 1.389 1.1426 1.9727l4e-3 6e-3 4e-3 4e-3c0.52857 0.58482 1.1939 1.0526 1.9766 1.4004h4e-3l4e-3 2e-3c0.80926 0.34842 1.7475 0.51172 2.8047 0.51172 0.78975 0 1.5045-0.0851 2.1445-0.26172l4e-3 -2e-3h4e-3c0.25989-0.0762 0.43927-0.17231 0.66602-0.25585v0.33984h2.4824v-5.8574h-4.1543v1.8125h1.6719v1.7266c-0.31403 0.17724-0.6288 0.34907-0.94531 0.44336-0.40066 0.11934-0.8754 0.18359-1.4258 0.18359-0.72481 0-1.333-0.11261-1.834-0.3164-0.51565-0.20977-0.92262-0.48656-1.2461-0.83399-0.32875-0.36334-0.57942-0.78736-0.75391-1.291-0.16699-0.52066-0.25391-1.0972-0.25391-1.7363 0-0.63033 0.0826-1.1958 0.24024-1.707v-2e-3c0.1666-0.50786 0.4063-0.93075 0.7168-1.2832 0.30896-0.35072 0.67733-0.61612 1.1289-0.8125 0.45022-0.19147 0.98816-0.29687 1.6289-0.29687 0.42586 0 0.81611 0.0441 1.1719 0.13086 0.37043 0.0903 0.69012 0.20735 0.96289 0.34374 0.26935 0.13467 0.47052 0.28185 0.61133 0.42969l0.02 0.02c0.1537 0.14638 0.21726 0.2614 0.24024 0.3418l0.12304 0.43555h2.4219l-0.33984-0.82617c-0.1194-0.29187-0.30327-0.57534-0.54297-0.8711-0.26064-0.34503-0.60277-0.64753-1.0137-0.91406-0.42736-0.27722-0.9347-0.49485-1.5195-0.66602-1e-3 -3.5e-4 -3e-3 3.6e-4 -4e-3 0-0.61123-0.19195-1.305-0.28125-2.0859-0.28125zm26.545 0v11.648h1.8574v-6.8203l3.7109 7h0.98438l3.8223-7.0039v6.8242h2.5566v-11.648h-1.9863l-4.5059 8.3613-4.4648-8.3613zm28.092 0-0.1543 0.36524-4.7695 11.283h1.9863l1.3144-3.0742h4.3691l1.4336 3.0742h2.7715l-5.4238-11.648zm17.299 0v11.648h4.2129c0.81597 0 1.5958-0.14275 2.3242-0.42969 0.72121-0.28411 1.3619-0.68815 1.9062-1.209 0.55633-0.52296 0.99332-1.1483 1.3027-1.8555 0.32327-0.72595 0.48438-1.5188 0.48438-2.3594 0-0.81075-0.15705-1.583-0.46875-2.2969-4.3e-4 -1e-3 4.2e-4 -3e-3 0-4e-3 -0.29988-0.70765-0.73543-1.3259-1.291-1.8379-0.54769-0.52362-1.2061-0.92971-1.957-1.2129h-2e-3c-0.75985-0.29619-1.5897-0.44336-2.4785-0.44336zm20.77 0v11.648h7.9453v-2.0195h-5.3867v-3.1738h4.627v-1.8867h-4.627v-2.5469h5.3867v-2.0215zm34.533 0v11.648h7.9473v-2.0195h-5.3887v-3.1738h4.627v-1.8867h-4.627v-2.5469h5.3887v-2.0215zm21.764 0-0.15429 0.36524-4.7715 11.283h1.9883l1.3125-3.0742h4.3711l1.4336 3.0742h2.7715l-5.4238-11.648zm34.215 0 0.49609 0.89063 3.5371 6.3594v4.3984h2.5566v-4.5293l4.1113-7.1191h-2.1914l-2.8672 4.9453-2.7324-4.9453zm-283.14 0.17969v11.648h7.9473v-2.0195h-5.3887v-3.1758h4.627v-1.8848h-4.627v-2.5469h5.3887v-2.0215zm21.764 0-0.1543 0.36524-4.7715 11.283h1.9883l1.3125-3.0742h4.3711l1.4336 3.0742h2.7715l-5.4238-11.648zm13.865 0v2.0215h4v9.627h2.5586v-9.627h4v-2.0215zm21.547 0v11.648h2.5566v-11.648zm214.12 0.79883 0.0117 8e-3c-2e-3 -1e-3 -6e-3 -5.8e-4 -8e-3 -2e-3 -2e-3 -1e-3 -2e-3 -5e-3 -4e-3 -6e-3zm-143.62 0.2207h0.0566l0.38867 0.72657h-0.44531zm10.461 0h0.0723v9.25h-0.1582v-8.4629h-0.33789zm34.93 0h0.16015v9.25h-0.16015zm20.77 0h0.16015v9.25h-0.16015zm34.533 0h0.16016v9.25h-0.16016zm56.818 0h0.16406l3.0449 5.5098h0.19532l-0.0527 0.0898v3.6504h-0.1582v-3.5117zm-129.84 0.0391 4.2891 9.2109h-0.12305l-1.1875-2.5469-0.24609-0.52735-2.6562-5.7031h-0.25782zm94.365 0 4.2891 9.2109h-0.12304l-1.1875-2.5469-0.2461-0.52735-2.6562-5.7031h-0.25781zm-248.51 0.14059h0.16016v9.25h-0.16016zm39.629 0h0.16016v9.25h-0.16016zm17.547 0h0.1582v9.25h-0.1582zm-35.832 0.0391 4.2891 9.2109h-0.12305l-1.1875-2.5469-0.24609-0.52734-2.6562-5.7031h-0.25781zm151.88 0.43946h1.041c0.66887 0 1.2351 0.11185 1.7148 0.32226 0.49591 0.2175 0.891 0.50346 1.209 0.86328l4e-3 6e-3 6e-3 6e-3c0.33308 0.3587 0.58259 0.76875 0.75586 1.2539v4e-3c0.17512 0.48158 0.26367 0.98153 0.26367 1.5117 0 0.47428-0.0757 0.95473-0.22851 1.4492-0.14605 0.46279-0.37103 0.87524-0.68946 1.2539-0.30872 0.36712-0.70827 0.67378-1.2168 0.91992-4.9e-4 2.3e-4 -1e-3 -2.3e-4 -2e-3 0-0.46572 0.22027-1.0667 0.3457-1.8164 0.3457h-1.041zm-70.945 0.0566 0.0195 0.0195c-4e-3 -4e-3 -0.01-6e-3 -0.0137-0.01-3e-3 -3e-3 -3e-3 -7e-3 -6e-3 -0.01zm-30.062 0.0449 7.5137 7.4062h0.39258v0.68359l-7.5137-7.4062h-0.39258zm106 0.50976c0.0268 0.0244 0.0696 0.0336 0.0957 0.0586l6e-3 4e-3 4e-3 4e-3c0.43584 0.40098 0.7671 0.87033 1.0039 1.4316l4e-3 8e-3c0.24454 0.55894 0.36719 1.1596 0.36719 1.8203 0 0.69052-0.12996 1.3082-0.38282 1.875v4e-3c-0.22467 0.51354-0.54883 0.93835-0.92968 1.3242 0.30915-0.42536 0.59449-0.867 0.75195-1.3672v-2e-3c0.1855-0.60013 0.28125-1.2042 0.28125-1.8047 0-0.66262-0.11194-1.306-0.33398-1.918-0.19374-0.54245-0.51036-1.0065-0.86719-1.4375zm-83.57 0.38086c-0.20557 0.33346-0.44859 0.63785-0.57618 1.0274l-2e-3 6e-3v4e-3c-0.19886 0.64076-0.29687 1.333-0.29687 2.0723-2e-5 0.75175 0.10443 1.4572 0.31445 2.1094l4e-3 0.012c0.16986 0.49258 0.46307 0.90196 0.76172 1.3066-0.0366-0.0374-0.0998-0.0571-0.13476-0.0957-0.40441-0.46761-0.70464-0.98686-0.9082-1.5684-0.19888-0.60695-0.30079-1.2249-0.30079-1.8672 0-0.7557 0.13279-1.4044 0.38282-1.9648v-2e-3c0.18364-0.41796 0.47404-0.72386 0.75586-1.0391zm170.63 0.24414c0.0737 0.45262 0.19838 0.91115 0.54883 1.2051 0.36259 0.30412 0.79564 0.56027 1.2949 0.77735h2e-3l2e-3 2e-3c0.48352 0.20576 1.001 0.40007 1.5527 0.58398l2e-3 2e-3c0.50996 0.16689 0.9727 0.37382 1.3906 0.61914l8e-3 4e-3 6e-3 4e-3c0.40293 0.2229 0.72351 0.49462 0.98047 0.82617l2e-3 4e-3 4e-3 2e-3c0.21211 0.26686 0.33203 0.6179 0.33203 1.1348 0 0.14429-0.0588 0.24843-0.0801 0.37695-0.0163-0.60235-0.19232-1.1752-0.58984-1.5859-0.35818-0.3701-0.80135-0.66791-1.3145-0.90234h-2e-3c-0.47301-0.23041-0.98226-0.43391-1.5293-0.60938-0.49415-0.1585-0.9518-0.34889-1.377-0.57031-0.38791-0.20689-0.69834-0.45599-0.94336-0.75-0.19513-0.23415-0.30859-0.54742-0.30859-1.0332 0-0.0358 0.0182-0.0553 0.0195-0.0898zm-111.45 0.58399 1.4102 3.0254h-2.7012zm94.365 0 1.4102 3.0254h-2.7012zm-227.16 0.17969 1.4102 3.0254h-2.7012zm81.596 3.3125h0.084v3.459h-0.084v-1.0059zm28.695 3.002h0.043l-0.0215 0.0391z" color="#000000" color-rendering="auto" dominant-baseline="auto" image-rendering="auto" solid-color="#000000" stop-color="#000000" style="font-feature-settings:normal;font-variant-alternates:normal;font-variant-caps:normal;font-variant-east-asian:normal;font-variant-ligatures:normal;font-variant-numeric:normal;font-variant-position:normal;font-variation-settings:normal;inline-size:0;isolation:auto;mix-blend-mode:normal;shape-margin:0;shape-padding:0;text-decoration-color:#000000;text-decoration-line:none;text-decoration-style:solid;text-indent:0;text-orientation:mixed;text-transform:none;white-space:normal"/>
  </g>
 </g>
</svg>
